<svg version="1.1" id="oberd_inner" xmlns="http://www.w3.org/2000/svg" xmlns:xlink="http://www.w3.org/1999/xlink" x="0px" y="0px"
   width="161.186px" height="161.186px" viewBox="226.082 316.35 161.186 161.186"
   style="enable-background:new 226.082 316.35 161.186 161.186;" xml:space="preserve">
<g>
  <path style="fill:#d8e549;" d="M284.37,325.533c3-3,6.468-5.277,10.403-6.841c3.936-1.558,7.904-2.34,11.901-2.342
    c3.997,0.002,7.966,0.784,11.9,2.342c3.938,1.564,7.403,3.841,10.406,6.841l49.105,49.105c3.124,3.125,5.437,6.625,6.936,10.497
    c1.498,3.876,2.25,7.812,2.246,11.809c0,4-0.779,7.965-2.343,11.899c-1.56,3.942-3.841,7.403-6.839,10.405l-49.105,49.105
    c-3.126,3.128-6.622,5.438-10.497,6.935c-3.876,1.507-7.812,2.252-11.809,2.248c-3.998,0.004-7.932-0.745-11.808-2.248
    c-3.875-1.497-7.371-3.807-10.496-6.935l-49.109-49.105c-2.999-3.002-5.28-6.469-6.839-10.405
    c-1.562-3.935-2.341-7.898-2.341-11.899c0-3.996,0.748-7.931,2.248-11.809c1.5-3.871,3.811-7.37,6.933-10.497L284.37,325.533z
     M315.486,339.028c-2.499-2.499-5.437-3.748-8.812-3.748c-3.374,0-6.31,1.249-8.808,3.748l-49.107,49.107
    c-2.501,2.5-3.75,5.435-3.748,8.811c-0.001,3.375,1.25,6.31,3.748,8.81l49.105,49.106c2.501,2.499,5.436,3.746,8.808,3.746
    c3.374,0,6.307-1.247,8.811-3.746l49.105-49.106c2.498-2.498,3.749-5.436,3.747-8.81c0-3.375-1.249-6.308-3.747-8.811
    L315.486,339.028z"/>
</g>
</svg>
