<svg version="1.1" id="oberd_outer" xmlns="http://www.w3.org/2000/svg" xmlns:xlink="http://www.w3.org/1999/xlink" x="0px" y="0px"
   width="161.186px" height="161.186px" viewBox="226.082 316.35 161.186 161.186"
   style="enable-background:new 226.082 316.35 161.186 161.186;" xml:space="preserve">
  <g>
    <path style="fill:#CADB2D;" d="M288.102,337.479c2.499-2.498,5.386-4.395,8.663-5.697c3.277-1.297,6.582-1.948,9.91-1.95
      c3.329,0.002,6.634,0.653,9.91,1.95c3.279,1.302,6.166,3.199,8.665,5.697l40.891,40.89c2.603,2.603,4.526,5.516,5.774,8.741
      c1.249,3.228,1.874,6.505,1.872,9.833c0,3.331-0.65,6.633-1.951,9.909c-1.299,3.282-3.198,6.164-5.695,8.664l-40.891,40.891
      c-2.604,2.604-5.514,4.527-8.74,5.773c-3.228,1.255-6.506,1.876-9.833,1.872c-3.329,0.004-6.605-0.62-9.832-1.872
      c-3.227-1.246-6.138-3.169-8.74-5.773l-40.894-40.891c-2.497-2.5-4.396-5.387-5.695-8.664c-1.301-3.275-1.949-6.578-1.949-9.909
      c0-3.327,0.623-6.604,1.872-9.833c1.249-3.223,3.173-6.137,5.772-8.741L288.102,337.479z M314.012,348.717
      c-2.08-2.081-4.524-3.121-7.337-3.121c-2.81,0-5.254,1.04-7.334,3.121l-40.892,40.892c-2.083,2.082-3.122,4.525-3.121,7.336
      c-0.001,2.81,1.041,5.253,3.121,7.335l40.891,40.892c2.083,2.081,4.526,3.119,7.334,3.119c2.809,0,5.251-1.038,7.336-3.119
      L354.9,404.28c2.08-2.08,3.122-4.525,3.119-7.335c0-2.812-1.039-5.253-3.119-7.336L314.012,348.717z"/>
  </g>
</svg>
